HIERARCHY
ROOT hip
{
  OFFSET 111.639 83.7257 66.0508
  CHANNELS 6 Xposition Yposition Zposition Zrotation Xrotation Yrotation
  JOINT abdomen
  {
    OFFSET 0 20.6881 -0.73152
    CHANNELS 3 Zrotation Xrotation Yrotation
    JOINT chest
    {
      OFFSET 0 11.7043 -0.48768
      CHANNELS 3 Zrotation Xrotation Yrotation
      JOINT neck
      {
        OFFSET 0 22.1894 -2.19456
        CHANNELS 3 Zrotation Xrotation Yrotation
        JOINT head
        {
          OFFSET -0.24384 7.07133 1.2192
          CHANNELS 3 Zrotation Xrotation Yrotation
          JOINT leftEye
          {
            OFFSET 4.14528 8.04674 8.04672
            CHANNELS 3 Zrotation Xrotation Yrotation
            End Site
            {
              OFFSET 1 0 0
            }
          }
          JOINT rightEye
          {
            OFFSET -3.6576 8.04674 8.04672
            CHANNELS 3 Zrotation Xrotation Yrotation
            End Site
            {
              OFFSET 1 0 0
            }
          }
        }
      }
      JOINT rCollar
      {
        OFFSET -2.68224 19.2634 -4.8768
        CHANNELS 3 Zrotation Xrotation Yrotation
        JOINT rShldr
        {
          OFFSET -8.77824 -1.95073 1.46304
          CHANNELS 3 Zrotation Xrotation Yrotation
          JOINT rForeArm
          {
            OFFSET -28.1742 -1.7115 0.48768
            CHANNELS 3 Zrotation Xrotation Yrotation
            JOINT rHand
            {
              OFFSET -22.5879 0.773209 7.07136
              CHANNELS 3 Zrotation Xrotation Yrotation
              JOINT rThumb1
              {
                OFFSET -1.2192 -0.487915 3.41376
                CHANNELS 3 Zrotation Xrotation Yrotation
                JOINT rThumb2
                {
                  OFFSET -3.37035 -0.52449 3.41376
                  CHANNELS 3 Zrotation Xrotation Yrotation
                  End Site
                  {
                    OFFSET -1.78271 -1.18214 1.43049
                  }
                }
              }
              JOINT rIndex1
              {
                OFFSET -7.75947 0.938293 5.60832
                CHANNELS 3 Zrotation Xrotation Yrotation
                JOINT rIndex2
                {
                  OFFSET -2.54057 -0.884171 1.56538
                  CHANNELS 3 Zrotation Xrotation Yrotation
                  End Site
                  {
                    OFFSET -1.62519 -0.234802 1.16502
                  }
                }
              }
              JOINT rMid1
              {
                OFFSET -8.24714 1.18213 3.41376
                CHANNELS 3 Zrotation Xrotation Yrotation
                JOINT rMid2
                {
                  OFFSET -3.10165 -0.590103 1.0647
                  CHANNELS 3 Zrotation Xrotation Yrotation
                  End Site
                  {
                    OFFSET -2.48547 -0.328903 0.83742
                  }
                }
              }
              JOINT rRing1
              {
                OFFSET -8.82822 0.546677 1.51678
                CHANNELS 3 Zrotation Xrotation Yrotation
                JOINT rRing2
                {
                  OFFSET -2.60934 -0.819778 -0.0198488
                  CHANNELS 3 Zrotation Xrotation Yrotation
                  End Site
                  {
                    OFFSET -2.33842 -0.294052 0.168128
                  }
                }
              }
              JOINT rPinky1
              {
                OFFSET -8.27202 -0.0477905 -0.4584
                CHANNELS 3 Zrotation Xrotation Yrotation
                JOINT rPinky2
                {
                  OFFSET -1.82734 -0.647385 -0.700984
                  CHANNELS 3 Zrotation Xrotation Yrotation
                  End Site
                  {
                    OFFSET -1.69225 -0.51767 -0.607171
                  }
                }
              }
            }
          }
        }
      }
      JOINT lCollar
      {
        OFFSET 2.68224 19.2634 -4.8768
        CHANNELS 3 Zrotation Xrotation Yrotation
        JOINT lShldr
        {
          OFFSET 8.77824 -1.95073 1.46304
          CHANNELS 3 Zrotation Xrotation Yrotation
          JOINT lForeArm
          {
            OFFSET 28.1742 -1.7115 0.48768
            CHANNELS 3 Zrotation Xrotation Yrotation
            JOINT lHand
            {
              OFFSET 22.5879 0.773209 7.07136
              CHANNELS 3 Zrotation Xrotation Yrotation
              JOINT lThumb1
              {
                OFFSET 1.2192 -0.487915 3.41376
                CHANNELS 3 Zrotation Xrotation Yrotation
                JOINT lThumb2
                {
                  OFFSET 3.37035 -0.52449 3.41376
                  CHANNELS 3 Zrotation Xrotation Yrotation
                  End Site
                  {
                    OFFSET 1.78271 -1.18214 1.43049
                  }
                }
              }
              JOINT lIndex1
              {
                OFFSET 7.75947 0.938293 5.60832
                CHANNELS 3 Zrotation Xrotation Yrotation
                JOINT lIndex2
                {
                  OFFSET 2.54057 -0.884171 1.56538
                  CHANNELS 3 Zrotation Xrotation Yrotation
                  End Site
                  {
                    OFFSET 1.62519 -0.234802 1.16502
                  }
                }
              }
              JOINT lMid1
              {
                OFFSET 8.24714 1.18213 3.41376
                CHANNELS 3 Zrotation Xrotation Yrotation
                JOINT lMid2
                {
                  OFFSET 3.10165 -0.590103 1.0647
                  CHANNELS 3 Zrotation Xrotation Yrotation
                  End Site
                  {
                    OFFSET 2.48547 -0.328903 0.83742
                  }
                }
              }
              JOINT lRing1
              {
                OFFSET 8.82822 0.546677 1.51678
                CHANNELS 3 Zrotation Xrotation Yrotation
                JOINT lRing2
                {
                  OFFSET 2.60934 -0.819778 -0.0198488
                  CHANNELS 3 Zrotation Xrotation Yrotation
                  End Site
                  {
                    OFFSET 2.33842 -0.294052 0.168128
                  }
                }
              }
              JOINT lPinky1
              {
                OFFSET 8.27202 -0.0477905 -0.4584
                CHANNELS 3 Zrotation Xrotation Yrotation
                JOINT lPinky2
                {
                  OFFSET 1.82734 -0.647385 -0.700984
                  CHANNELS 3 Zrotation Xrotation Yrotation
                  End Site
                  {
                    OFFSET 1.69225 -0.51767 -0.607171
                  }
                }
              }
            }
          }
        }
      }
    }
  }
  JOINT rButtock
  {
    OFFSET -8.77824 4.35084 1.2192
    CHANNELS 3 Zrotation Xrotation Yrotation
    JOINT rThigh
    {
      OFFSET 0 -1.70687 -2.19456
      CHANNELS 3 Zrotation Xrotation Yrotation
      JOINT rShin
      {
        OFFSET 0 -36.8199 0.73152
        CHANNELS 3 Zrotation Xrotation Yrotation
        JOINT rFoot
        {
          OFFSET 0.73152 -45.1104 -5.12064
          CHANNELS 3 Zrotation Xrotation Yrotation
          End Site
          {
            OFFSET -1.1221 -3.69964 12.103
          }
        }
      }
    }
  }
  JOINT lButtock
  {
    OFFSET 8.77824 4.35084 1.2192
    CHANNELS 3 Zrotation Xrotation Yrotation
    JOINT lThigh
    {
      OFFSET 0 -1.70687 -2.19456
      CHANNELS 3 Zrotation Xrotation Yrotation
      JOINT lShin
      {
        OFFSET 0 -36.8199 0.73152
        CHANNELS 3 Zrotation Xrotation Yrotation
        JOINT lFoot
        {
          OFFSET -0.73152 -45.1104 -5.12064
          CHANNELS 3 Zrotation Xrotation Yrotation
          End Site
          {
            OFFSET 1.1221 -3.69964 12.103
          }
        }
      }
    }
  }
}
MOTION
Frames:	8
Frame Time:	0.00833333
-62.5155 84.8839 -80.0892 0.147522 -0.000239384 -0.00252446 -0.194077 -0.000752048 -0.00553942 -0.0535363 -0.00112971 -0.00927448 -5.07043e-016 -7.95139e-016 4.65902e-017 -1.5499e-015 3.18055e-015 1.35111e-016 -0 0 0 -0 0 0 -2.49817e-016 -3.88251e-019 1.49089e-016 -3.20929e-015 -6.21202e-017 1.39149e-015 -9.05464e-014 3.06128e-014 2.54444e-014 -1.06991e-012 -1.9307e-014 6.04305e-014 -2.51953e-012 2.49758e-014 2.00375e-013 -4.35855e-012 4.13472e-014 3.39524e-013 -2.51343e-012 2.74323e-014 1.94014e-013 7.73091 5.47488 0.417314 -2.51791e-012 2.57426e-014 2.00375e-013 2.90554 0.965183 0.102902 -2.50932e-012 2.5842e-014 1.98785e-013 10.2786 0.731801 0.0259123 -2.52317e-012 2.46493e-014 2.06736e-013 2.22167 -0.733487 -0.20892 -2.47161e-016 -3.88251e-019 -1.49089e-016 -7.93081e-015 -3.41661e-016 -5.96354e-016 -9.54166e-014 -2.72335e-014 -9.54166e-015 -1.06908e-012 2.72087e-014 1.08139e-013 -2.52302e-012 4.14261e-015 2.00375e-013 -4.3502e-012 9.54166e-015 3.44295e-013 -2.52735e-012 6.75868e-015 2.06736e-013 -7.73091 5.47488 -0.417314 -2.52238e-012 4.47265e-015 1.97194e-013 -2.90554 0.965183 -0.102902 -2.53793e-012 4.96962e-015 2.00375e-013 -10.2786 0.731801 -0.0259123 -2.52158e-012 5.1684e-015 1.94014e-013 -2.22167 -0.733487 0.20892 -2.03217e-016 0 -3.88251e-019 0.355851 -2.82714 -0.0340694 -0.00665505 -0.431854 -0.0584472 -0.502542 3.25829 0.123799 2.03217e-016 0 3.88251e-019 -0.651364 -3.58303 0.0525572 0.00446003 0.937454 0.0381206 0.504972 2.64491 -0.111593 
-62.0043 83.7328 -80.3998 0.542842 -0.0320904 -0.579201 -0.676376 3.33067 -0.395446 0.824746 -1.43933 -0.0796238 -3.16955 -1.95379 -1.34953 3.68361 2.64627 -1.7011 -0 0 0 -0 0 0 1.90646e-016 -1.26301e-014 5.20684e-015 22.7742 2.07512 -1.06296 -3.5389 -1.49288 5.64606 0.0183514 3.0213 0.42252 -1.96636e-010 6.05642e-011 1.53197e-010 -3.38333e-010 1.04406e-010 2.6639e-010 -1.96632e-010 6.05665e-011 1.53191e-010 7.73091 5.47488 0.417314 -1.96636e-010 6.05654e-011 1.53198e-010 2.90554 0.965183 0.102902 -1.96629e-010 6.05653e-011 1.53196e-010 10.2786 0.731801 0.0259123 -1.96642e-010 6.0565e-011 1.53205e-010 2.22167 -0.733487 -0.20892 2.20127e-016 -1.26282e-014 4.90633e-015 -21.1402 6.096 -2.13498 4.75829 -2.28116 -7.29832 -0.00604018 1.72413 -0.241914 -3.44497e-010 -6.16378e-010 -7.44038e-011 -5.97011e-010 -1.06591e-009 -1.25655e-010 -3.44502e-010 -6.16377e-010 -7.43955e-011 -7.73091 5.47488 -0.417314 -3.44497e-010 -6.16379e-010 -7.4406e-011 -2.90554 0.965183 -0.102902 -3.4451e-010 -6.16379e-010 -7.4404e-011 -10.2786 0.731801 -0.0259123 -3.44496e-010 -6.16379e-010 -7.44101e-011 -2.22167 -0.733487 0.20892 -2.03217e-016 0 -3.88251e-019 0.577513 -8.82173 -0.646263 -0.0300316 6.64109 -0.0103683 -0.501217 3.03222 0.237744 2.03217e-016 0 3.88251e-019 -1.54842 -1.66829 -1.19809 -0.0140585 10.3297 -0.123306 0.699782 7.08616 -3.96927 
-62.231 83.6779 -79.6228 0.985973 -0.0622697 -1.19588 -1.16739 6.8456 -0.80804 1.74953 -2.95901 -0.154409 -6.61623 -4.01819 -2.78029 7.7438 5.43686 -3.51013 -0 0 0 -0 0 0 7.24069e-016 -2.6788e-014 1.0986e-014 46.9418 4.24356 -2.20364 -6.96076 -3.02209 11.6254 -0.0112114 6.25015 0.878109 -4.13807e-010 1.30128e-010 3.2689e-010 -7.11968e-010 2.24335e-010 5.68418e-010 -4.13804e-010 1.3013e-010 3.26884e-010 7.73091 5.47488 0.417314 -4.13808e-010 1.3013e-010 3.26892e-010 2.90554 0.965183 0.102902 -4.13802e-010 1.30129e-010 3.2689e-010 10.2786 0.731801 0.0259123 -4.13815e-010 1.3013e-010 3.26901e-010 2.22167 -0.733487 -0.20892 7.85479e-016 -2.67841e-014 1.06816e-014 -42.9799 12.4984 -4.48721 9.16881 -4.57449 -15.0609 0.00343031 3.54521 -0.498175 -7.20711e-010 -1.29955e-009 -1.56713e-010 -1.24901e-009 -2.24734e-009 -2.64671e-010 -7.20717e-010 -1.29955e-009 -1.56703e-010 -7.73091 5.47488 -0.417314 -7.20712e-010 -1.29956e-009 -1.56714e-010 -2.90554 0.965183 -0.102902 -7.20722e-010 -1.29956e-009 -1.56713e-010 -10.2786 0.731801 -0.0259123 -7.20711e-010 -1.29956e-009 -1.56719e-010 -2.22167 -0.733487 0.20892 -2.03217e-016 0 -3.88251e-019 0.639059 -15.2116 -1.31951 -0.0681234 14.1496 0.0434826 -0.499009 2.81025 0.356075 2.03217e-016 0 3.88251e-019 -2.43683 0.459966 -2.50779 0.0269353 20.118 -0.306903 1.55055 11.5605 -8.14532 
-62.4565 83.636 -78.8613 1.33156 -0.0957534 -1.73256 -1.50317 9.99162 -1.19133 2.57069 -4.31572 -0.220873 -9.78575 -5.84834 -4.06746 11.5254 7.9107 -5.14697 -0 0 0 -0 0 0 1.07157e-015 -3.78895e-014 1.53223e-014 68.5546 6.21675 -3.20566 -9.74621 -4.30499 16.9818 -0.0800532 9.0619 1.2818 -5.8487e-010 1.81643e-010 4.5919e-010 -1.00628e-009 3.13134e-010 7.9849e-010 -5.84869e-010 1.81645e-010 4.59184e-010 7.73091 5.47488 0.417314 -5.84873e-010 1.81645e-010 4.59193e-010 2.90554 0.965183 0.102902 -5.84867e-010 1.81644e-010 4.5919e-010 10.2786 0.731801 0.0259123 -5.84879e-010 1.81646e-010 4.59202e-010 2.22167 -0.733487 -0.20892 1.1547e-015 -3.78839e-014 1.50172e-014 -62 18.1837 -6.70497 12.5695 -6.4003 -22.0219 0.025708 5.17202 -0.72838 -1.02845e-009 -1.84914e-009 -2.23612e-010 -1.78233e-009 -3.19774e-009 -3.77653e-010 -1.02845e-009 -1.84914e-009 -2.236e-010 -7.73091 5.47488 -0.417314 -1.02845e-009 -1.84915e-009 -2.23613e-010 -2.90554 0.965183 -0.102902 -1.02845e-009 -1.84915e-009 -2.23613e-010 -10.2786 0.731801 -0.0259123 -1.02844e-009 -1.84915e-009 -2.23618e-010 -2.22167 -0.733487 0.20892 -2.03217e-016 0 -3.88251e-019 0.612601 -20.8013 -1.97669 -0.113907 20.787 0.0919823 -0.495867 2.58006 0.465508 2.03217e-016 0 3.88251e-019 -3.09194 2.1556 -3.70028 0.126452 29.1134 -0.503807 2.93076 15.6839 -12.0487 
-62.6344 83.5977 -78.0858 1.43435 -0.137528 -2.0692 -1.54601 12.217 -1.48659 3.14033 -5.26505 -0.26601 -12.0662 -7.10528 -4.97762 14.2748 9.61938 -6.31179 -0 0 0 -0 0 0 9.5427e-016 -4.13501e-014 1.60519e-014 83.6161 7.71024 -3.84548 -11.5486 -5.13708 20.7396 -0.146129 10.8329 1.54106 -6.40665e-010 1.88036e-010 4.88005e-010 -1.10229e-009 3.24105e-010 8.48672e-010 -6.40663e-010 1.88038e-010 4.87999e-010 7.73091 5.47488 0.417314 -6.40667e-010 1.88038e-010 4.88008e-010 2.90554 0.965183 0.102902 -6.40663e-010 1.88038e-010 4.88006e-010 10.2786 0.731801 0.0259123 -6.40674e-010 1.8804e-010 4.88018e-010 2.22167 -0.733487 -0.20892 1.0336e-015 -4.13433e-014 1.57537e-014 -75.0026 22.1775 -8.30042 14.6425 -7.48481 -26.8561 0.0491382 6.3135 -0.890949 -1.16498e-009 -2.06477e-009 -2.51986e-010 -2.01897e-009 -3.57059e-009 -4.25553e-010 -1.16498e-009 -2.06477e-009 -2.51973e-010 -7.73091 5.47488 -0.417314 -1.16498e-009 -2.06477e-009 -2.51986e-010 -2.90554 0.965183 -0.102902 -1.16499e-009 -2.06477e-009 -2.51987e-010 -10.2786 0.731801 -0.0259123 -1.16498e-009 -2.06477e-009 -2.51992e-010 -2.22167 -0.733487 0.20892 -2.03217e-016 0 -3.88251e-019 0.665064 -24.3993 -2.49494 -0.149843 25.2465 0.119681 -0.491864 2.32934 0.552765 2.03217e-016 0 3.88251e-019 -3.3599 2.77745 -4.59256 0.25236 36.1273 -0.687006 4.43218 19.1698 -14.9946 
-62.8745 84.135 -77.2591 1.18701 -0.192867 -2.10417 -1.20372 13.1576 -1.67492 3.36855 -5.64369 -0.287378 -13.0209 -7.56604 -5.34522 15.4287 10.2744 -6.78009 -0 0 0 -0 0 0 -1.67416e-015 -2.84667e-014 9.39995e-015 89.4266 8.55451 -3.96483 -12.2192 -5.4424 22.2073 -0.162134 11.092 1.57993 -4.81064e-010 1.27876e-010 2.84055e-010 -8.28007e-010 2.20507e-010 4.94571e-010 -4.81059e-010 1.27878e-010 2.84048e-010 7.73091 5.47488 0.417314 -4.81063e-010 1.27878e-010 2.84058e-010 2.90554 0.965183 0.102902 -4.81062e-010 1.27878e-010 2.84055e-010 10.2786 0.731801 0.0259123 -4.81071e-010 1.2788e-010 2.84066e-010 2.22167 -0.733487 -0.20892 -1.64088e-015 -2.84595e-014 9.12429e-015 -80.0937 23.8755 -8.80308 15.3467 -7.82217 -28.6432 0.0599813 6.75218 -0.953716 -1.02694e-009 -1.69021e-009 -1.73733e-010 -1.77952e-009 -2.92251e-009 -2.91568e-010 -1.02695e-009 -1.69021e-009 -1.73722e-010 -7.73091 5.47488 -0.417314 -1.02694e-009 -1.69021e-009 -1.73734e-010 -2.90554 0.965183 -0.102902 -1.02695e-009 -1.69021e-009 -1.73734e-010 -10.2786 0.731801 -0.0259123 -1.02694e-009 -1.69021e-009 -1.7374e-010 -2.22167 -0.733487 0.20892 -2.03217e-016 0 -3.88251e-019 0.985154 -25.1902 -2.75548 -0.157597 26.6256 0.110008 -0.486839 2.0606 0.611422 2.03217e-016 0 3.88251e-019 -3.16426 1.85995 -5.09529 0.347694 40.4361 -0.813818 5.66385 22.2947 -16.4908 
-63.1019 84.2327 -76.513 0.690648 -0.257823 -1.92468 -0.599121 13.1808 -1.78206 3.35333 -5.61472 -0.291356 -13.008 -7.46075 -5.32181 15.4072 10.1824 -6.74272 -0 0 0 -0 0 0 -6.00766e-015 -4.17792e-015 -2.41337e-015 88.6097 8.93584 -3.70875 -12.14 -5.40482 22.0339 -0.136939 10.2739 1.46031 -1.70181e-010 2.03404e-011 -8.19724e-011 -2.93634e-010 3.53405e-011 -1.41046e-010 -1.70172e-010 2.0341e-011 -8.19788e-011 7.73091 5.47488 0.417314 -1.70175e-010 2.03404e-011 -8.19689e-011 2.90554 0.965183 0.102902 -1.70179e-010 2.03416e-011 -8.19721e-011 10.2786 0.731801 0.0259123 -1.70186e-010 2.0343e-011 -8.19631e-011 2.22167 -0.733487 -0.20892 -6.05031e-015 -4.17092e-015 -2.65564e-015 -79.6582 23.9544 -8.46057 15.1731 -7.70464 -28.2386 0.0585645 6.69006 -0.944834 -6.94451e-010 -8.99925e-010 -2.18282e-011 -1.20288e-009 -1.5553e-009 -3.1988e-011 -6.94456e-010 -8.99922e-010 -2.18198e-011 -7.73091 5.47488 -0.417314 -6.94451e-010 -8.99928e-010 -2.18297e-011 -2.90554 0.965183 -0.102902 -6.94457e-010 -8.99928e-010 -2.18292e-011 -10.2786 0.731801 -0.0259123 -6.94447e-010 -8.99926e-010 -2.18361e-011 -2.22167 -0.733487 0.20892 -2.03217e-016 0 -3.88251e-019 1.535 -23.9791 -2.8121 -0.143721 25.8059 0.0728178 -0.481193 1.77848 0.649547 2.03217e-016 0 3.88251e-019 -2.66033 -0.152868 -5.322 0.397392 42.8095 -0.883263 6.53484 25.2054 -16.9091 
-63.2199 84.3026 -75.7284 0.112514 -0.32355 -1.69402 0.0779027 12.8325 -1.81312 3.22898 -5.42331 -0.278055 -12.5977 -7.13287 -5.14559 14.9139 9.79372 -6.51365 -0 0 0 -0 0 0 -8.04655e-015 1.56384e-014 -1.25603e-014 85.1458 9.10548 -3.30553 -11.7825 -5.24517 21.2459 -0.104011 9.11492 1.29207 1.14784e-010 -1.00735e-010 -3.72209e-010 1.96493e-010 -1.73477e-010 -6.45367e-010 1.14797e-010 -1.00734e-010 -3.72216e-010 7.73091 5.47488 0.417314 1.14794e-010 -1.00736e-010 -3.72206e-010 2.90554 0.965183 0.102902 1.14787e-010 -1.00734e-010 -3.72209e-010 10.2786 0.731801 0.0259123 1.14781e-010 -1.00733e-010 -3.72202e-010 2.22167 -0.733487 -0.20892 -8.16662e-015 1.56448e-014 -1.27723e-014 -76.9949 23.3874 -7.79427 14.6426 -7.40084 -26.9598 0.0528403 6.46536 -0.912667 -3.39992e-010 -1.3957e-010 7.5233e-011 -5.88561e-010 -2.40206e-010 1.32599e-010 -3.39998e-010 -1.39564e-010 7.52383e-011 -7.73091 5.47488 -0.417314 -3.39992e-010 -1.3957e-010 7.52303e-011 -2.90554 0.965183 -0.102902 -3.39998e-010 -1.39571e-010 7.52318e-011 -10.2786 0.731801 -0.0259123 -3.39988e-010 -1.39569e-010 7.52242e-011 -2.22167 -0.733487 0.20892 -2.03217e-016 0 -3.88251e-019 2.16669 -22.0082 -2.77755 -0.124324 24.157 0.0293112 -0.475846 1.47384 0.675608 2.03217e-016 0 3.88251e-019 -2.0489 -2.53576 -5.38771 0.422563 44.2999 -0.920923 7.0083 27.4691 -16.776 
